<?xml version="1.0" encoding="UTF-8" standalone="no" ?>
<!DOCTYPE svg PUBLIC "-//W3C//DTD SVG 1.1//EN" "http://www.w3.org/Graphics/SVG/1.1/DTD/svg11.dtd">
<svg xmlns="http://www.w3.org/2000/svg" xmlns:xlink="http://www.w3.org/1999/xlink" version="1.1" width="1080" height="1080" viewBox="0 0 1080 1080" xml:space="preserve">
<desc>Created with Fabric.js 5.2.4</desc>
<defs>
</defs>
<rect x="0" y="0" width="100%" height="100%" fill="transparent"></rect>
<g transform="matrix(1 0 0 1 540 540)" id="be03d888-3ba7-42b9-9172-975065e8f68c"  >
</g>
<g transform="matrix(1 0 0 1 540 540)" id="d7e9e1ed-ee13-487e-b39a-d453f04bb7b3"  >
<rect style="stroke: none; stroke-width: 1; stroke-dasharray: none; stroke-linecap: butt; stroke-dashoffset: 0; stroke-linejoin: miter; stroke-miterlimit: 4; fill: rgb(255,255,255); fill-rule: nonzero; opacity: 1; visibility: hidden;" vector-effect="non-scaling-stroke"  x="-540" y="-540" rx="0" ry="0" width="1080" height="1080" />
</g>
<g transform="matrix(8.51 0 0 8.51 569.03 540)"  >
<path style="stroke: rgb(0,0,0); stroke-width: 0; stroke-dasharray: none; stroke-linecap: butt; stroke-dashoffset: 0; stroke-linejoin: miter; stroke-miterlimit: 4; fill: rgb(255,255,255); fill-rule: nonzero; opacity: 1;" vector-effect="non-scaling-stroke"  transform=" translate(-54.53, -61.44)" d="M 34.43 47.86 L 52.8 37.6 L 52.8 18.31 C 50.66543903555358 17.930383334889203 48.73254303989793 16.8117109271471 47.339999999999996 15.15 L 17.91 32.18 C 18.26 33.16 18.45 34.21 18.45 35.31 C 18.45 36.230000000000004 18.32 37.11 18.07 37.95 L 34.43 47.86 z M 45.78 12.479999999999997 C 45.389532397497206 11.440950450998812 45.18966663074578 10.339994956181682 45.19 9.229999999999993 C 45.19 6.679999999999997 46.22 4.3699999999999966 47.89 2.6999999999999966 C 49.56 1.0299999999999967 51.87 0 54.42 0 C 56.97 0 59.28 1.03 60.95 2.7 C 62.68288425501526 4.430791490134649 63.65456327615746 6.780815196823025 63.650000000000006 9.229999999999993 C 63.650000000000006 10.350000000000001 63.45 11.42 63.09 12.41 L 92.66 29.51 C 92.86999999999999 29.26 93.08 29.01 93.31 28.78 C 95.04079149013465 27.047115744984747 97.39081519682303 26.075436723842543 99.84 26.080000000000005 C 102.39 26.080000000000002 104.7 27.110000000000003 106.37 28.78 C 108.10288425501525 30.51079149013465 109.07456327615746 32.860815196823026 109.07000000000001 35.309999999999995 C 109.07000000000001 37.86 108.04 40.160000000000004 106.37 41.83 C 104.93472508844162 43.26696232466926 103.06403980135607 44.18823966530162 101.05000000000001 44.449999999999996 L 101.05000000000001 78.35999999999999 C 103.12 78.62999999999998 104.97000000000001 79.57999999999998 106.37 80.97999999999999 C 108.04 82.64999999999999 109.07000000000001 84.96 109.07000000000001 87.49999999999999 C 109.07212506003964 89.9485990470632 108.10036385171301 92.2975205664461 106.36894220907956 94.02894220907955 C 104.63752056644611 95.760363851713 102.28859904706322 96.73212506003962 99.84 96.72999999999999 C 97.06778797205865 96.73431265955053 94.44126578713424 95.48901053271223 92.69 93.33999999999999 L 63.08 110.46 C 63.44 111.44999999999999 63.64 112.52 63.64 113.64 C 63.64 116.19 62.61 118.5 60.94 120.17 C 59.20920850986535 121.90288425501525 56.859184803176966 122.87456327615746 54.41 122.87 C 51.86 122.87 49.55 121.84 47.879999999999995 120.17 C 46.209999999999994 118.5 45.17999999999999 116.19 45.17999999999999 113.64 C 45.17999999999999 112.5 45.38999999999999 111.4 45.769999999999996 110.39 L 16.35 93.38 C 14.597310419556331 95.51236126591917 11.98022704313658 96.74565721890238 9.22 96.74 C 6.670000000000003 96.74 4.360000000000002 95.71 2.690000000000002 94.03999999999999 C 1.03 92.37 0 90.06 0 87.51 C 0 84.96000000000001 1.03 82.66000000000001 2.7 80.99000000000001 C 4.118959373750139 79.56959477598204 5.961871219117838 78.64989400743663 7.949999999999997 78.37 L 7.95 44.44 C 5.9605076816503 44.16450134096599 4.11626690362651 43.244137371742696 2.7 41.82 C 0.9657219522952678 40.09423270378056 -0.006448775232446469 37.746620428417344 8.881784197001252e-16 35.3 C 0 32.75 1.03 30.439999999999998 2.7 28.769999999999996 C 4.4307914901346495 27.037115744984746 6.780815196823032 26.065436723842538 9.229999999999997 26.07 C 12.007381363946434 26.065118096188666 14.638486232498444 27.314525436003866 16.389999999999997 29.46999999999999 L 45.78 12.479999999999997 z M 61.54 15.089999999999996 C 60.13846449449362 16.79886849452421 58.16814741137808 17.94555753568875 55.99 18.319999999999997 L 55.99 37.6 L 74.32 48.22 L 91.16999999999999 38.48 C 90.79999999999998 37.489999999999995 90.60999999999999 36.41 90.60999999999999 35.3 C 90.60999999999999 34.22 90.79999999999998 33.169999999999995 91.13999999999999 32.209999999999994 L 61.539999999999985 15.089999999999993 z M 98.22999999999999 44.39 C 96.36483895784109 44.06565292543105 94.64601259402613 43.17130424832409 93.30999999999999 41.83 C 93.11999999999999 41.64 92.93999999999998 41.449999999999996 92.76999999999998 41.239999999999995 L 75.94999999999999 50.959999999999994 L 75.94999999999999 71.74 L 92.83999999999999 81.49 C 92.99 81.32 93.13999999999999 81.14999999999999 93.29999999999998 80.99 C 94.63738322287745 79.6505627394023 96.3555813092922 78.7565409708613 98.21999999999998 78.42999999999999 L 98.21999999999998 44.39 L 98.22999999999999 44.39 z M 91.16 90.66 C 90.8 89.67999999999999 90.61 88.61999999999999 90.61 87.52 C 90.61 86.36 90.82 85.25 91.22 84.22 L 74.88 74.78999999999999 L 55.989999999999995 85.77 L 55.989999999999995 104.56 C 58.16814741137807 104.93444246431125 60.13846449449361 106.0811315054758 61.53999999999999 107.79 L 91.16 90.66000000000001 z M 47.339999999999996 107.72 C 48.73254303989793 106.0582890728529 50.66543903555358 104.9396166651108 52.8 104.56 L 52.8 85.68 L 33.839999999999996 74.68 L 17.749999999999996 83.97 C 18.199999999999996 85.06 18.459999999999997 86.26 18.459999999999997 87.52 C 18.459999999999997 88.64 18.259999999999998 89.71 17.9 90.7 L 47.34 107.72 z M 10.76 78.41 C 12.69 78.72999999999999 14.42 79.66 15.75 80.99 C 15.85 81.08999999999999 15.94 81.19 16.03 81.28999999999999 L 32.42 71.82999999999998 L 32.42 50.36 L 16.64 40.8 C 16.37 41.169999999999995 16.07 41.51 15.75 41.83 C 14.394139737847873 43.18621892898713 12.650462355957 44.087759539263374 10.760000000000002 44.41 L 10.76 78.41 z M 9.24 41.34 C 9.28 41.34 9.32 41.330000000000005 9.36 41.330000000000005 L 9.44 41.330000000000005 C 10.968142458019992 41.28203673208229 12.420333401552442 40.65251553488596 13.5 39.57000000000001 C 14.634419724144344 38.438720248266016 15.271382553581839 36.90209240549873 15.27 35.30000000000001 C 15.27 33.63000000000001 14.59 32.12000000000001 13.5 31.030000000000012 C 12.41 29.940000000000012 10.9 29.260000000000012 9.23 29.260000000000012 C 7.5600000000000005 29.260000000000012 6.050000000000001 29.940000000000012 4.960000000000001 31.030000000000012 C 3.8255802758556574 32.16127975173401 3.1886174464181622 33.697907594501295 3.1900000000000013 35.30000000000001 C 3.190000000000001 36.97000000000001 3.870000000000001 38.48000000000001 4.960000000000001 39.57000000000001 C 6.094164542322665 40.70622236464306 7.63459669350479 41.343270240248756 9.239999999999998 41.34000000000001 z M 58.68 109.39 C 57.548720248266 108.25558027585566 56.012092405498706 107.61861744641816 54.41 107.62 C 52.739999999999995 107.62 51.23 108.30000000000001 50.14 109.39 C 49.05 110.48 48.37 111.99 48.37 113.66 C 48.37 115.33 49.05 116.84 50.14 117.92999999999999 C 51.230000000000004 119.01999999999998 52.74 119.69999999999999 54.41 119.69999999999999 C 56.08 119.69999999999999 57.589999999999996 119.01999999999998 58.67999999999999 117.92999999999999 C 59.769999999999996 116.83999999999999 60.449999999999996 115.33 60.449999999999996 113.66 C 60.449999999999996 111.99 59.779999999999994 110.47999999999999 58.67999999999999 109.39 z M 58.68 4.959999999999994 C 57.548720248266 3.825580275855647 56.01209240549871 3.188617446418153 54.41 3.189999999999994 C 52.739999999999995 3.1899999999999937 51.23 3.869999999999994 50.14 4.959999999999994 C 49.050000000000004 6.049999999999994 48.37 7.559999999999993 48.37 9.229999999999993 C 48.37 10.899999999999993 49.05 12.409999999999993 50.14 13.499999999999993 C 51.27127975173399 14.634419724144337 52.80790759450128 15.271382553581832 54.41 15.269999999999992 C 56.08 15.269999999999992 57.589999999999996 14.589999999999993 58.67999999999999 13.499999999999993 C 59.81441972414434 12.368720248265998 60.45138255358184 10.83209240549871 60.449999999999996 9.229999999999995 C 60.449999999999996 7.559999999999993 59.779999999999994 6.049999999999994 58.67999999999999 4.959999999999994 z M 104.1 83.25 C 102.968720248266 82.11558027585566 101.43209240549871 81.47861744641816 99.83 81.48 C 98.16 81.48 96.64999999999999 82.16000000000001 95.56 83.25 C 94.42558027585567 84.381279751734 93.78861744641817 85.91790759450129 93.79 87.52 C 93.79 89.19 94.47000000000001 90.7 95.56 91.78999999999999 C 96.691279751734 92.92441972414433 98.22790759450129 93.56138255358182 99.83 93.55999999999999 C 101.5 93.55999999999999 103.01 92.87999999999998 104.1 91.78999999999999 C 105.23441972414433 90.658720248266 105.87138255358182 89.1220924054987 105.86999999999999 87.52 C 105.86999999999999 85.85 105.19999999999999 84.33999999999999 104.1 83.25 z M 13.5 83.25 C 12.41 82.16 10.9 81.48 9.23 81.48 C 7.5600000000000005 81.48 6.050000000000001 82.16000000000001 4.960000000000001 83.25 C 3.8255802758556574 84.381279751734 3.1886174464181622 85.91790759450129 3.1900000000000013 87.52 C 3.190000000000001 89.19 3.870000000000001 90.7 4.960000000000001 91.78999999999999 C 6.050000000000001 92.87999999999998 7.5600000000000005 93.55999999999999 9.23 93.55999999999999 C 10.9 93.55999999999999 12.41 92.87999999999998 13.5 91.78999999999999 C 14.634419724144344 90.658720248266 15.271382553581839 89.1220924054987 15.27 87.52 C 15.266777046927 85.91882568864017 14.630515312520506 84.38388918812281 13.499999999999996 83.25 z M 94.45 38.03 C 94.53 38.11 94.59 38.21 94.65 38.31 C 94.71000000000001 38.410000000000004 94.75 38.510000000000005 94.79 38.620000000000005 C 95.02000000000001 38.96000000000001 95.28 39.28 95.56 39.57000000000001 C 96.691279751734 40.70441972414435 98.22790759450129 41.341382553581845 99.83 41.34000000000001 C 101.5 41.34000000000001 103.01 40.66000000000001 104.1 39.57000000000001 C 105.23441972414433 38.43872024826601 105.87138255358182 36.90209240549872 105.86999999999999 35.30000000000001 C 105.86999999999999 33.63000000000001 105.18999999999998 32.12000000000001 104.1 31.030000000000012 C 102.968720248266 29.895580275855668 101.43209240549871 29.25861744641817 99.83 29.260000000000012 C 98.16 29.260000000000012 96.64999999999999 29.940000000000012 95.56 31.030000000000012 C 94.42558027585567 32.16127975173401 93.78861744641817 33.6979075945013 93.79 35.30000000000001 C 93.80000000000001 36.29000000000001 94.04 37.21000000000001 94.45 38.03000000000001 z M 35.41 71.49 C 35.63720482830062 71.73435489981118 35.7868460941375 72.04059749036108 35.839999999999996 72.36999999999999 L 52.97 82.44 L 52.97 62.56 L 35.41 52.11 L 35.41 71.49 z M 72.97 52.379999999999995 L 55.96 62.57 L 55.96 82.46000000000001 L 72.97 72.41000000000001 L 72.97 52.38 z M 54.39 39.99 L 37.79 49.92 L 54.480000000000004 59.97 L 70.69 50.129999999999995 L 54.39 39.989999999999995 z" stroke-linecap="round" />
</g>
</svg>